Coordinates
version=1
nRows=21
nColumns=22
inDegrees=yes

Units are S.I. units (second, meters, Newtons, ...)
If the header above contains a line with 'inDegrees', this indicates whether rotational values are in degrees (yes) or radians (no).

endheader
time	pelvis_tilt	pelvis_list	pelvis_rotation	pelvis_tx	pelvis_ty	pelvis_tz	hip_flexion_r	hip_adduction_r	hip_rotation_r	knee_angle_r	ankle_angle_r	subtalar_angle_r	hip_flexion_l	hip_adduction_l	hip_rotation_l	knee_angle_l	ankle_angle_l	subtalar_angle_l	lumbar_extension	lumbar_bending	lumbar_rotation
      3.97000000	      2.20286817	      4.54265208	    162.91761269	      0.15724918	      0.94138899	     -0.60890281	      2.15495544	      2.82518598	     -5.76746544	    -17.69418426	     17.05894699	      5.19659474	     34.13502355	     -8.40364999	    -11.87099534	    -32.86949855	      5.31131890	     -6.01875076	     -8.67525842	      5.89862204	      6.56977764
      3.98000000	      2.23028589	      4.60747508	    163.62026127	      0.14947045	      0.93999594	     -0.60881027	      1.58954148	      2.81927669	     -6.33821630	    -17.63859580	     17.48726069	      4.99437207	     33.89832436	     -8.28248384	    -11.37960009	    -30.10270479	      5.28768647	     -6.59134218	     -8.60984359	      5.85492194	      6.50102472
      3.99000000	      2.23625987	      4.69331868	    164.32557650	      0.14162799	      0.93858625	     -0.60866841	      1.00113964	      2.83504397	     -6.91092993	    -17.60094868	     17.89603182	      4.82860399	     33.64471488	     -8.21729647	    -10.95359672	    -27.52645513	      5.26489427	     -7.20508473	     -8.57382957	      5.80935443	      6.43904324
      4.00000000	      2.23080111	      4.76861512	    165.02106189	      0.13365146	      0.93715131	     -0.60850666	      0.37517412	      2.84904199	     -7.44351523	    -17.52532025	     18.29929414	      4.68855664	     33.40844191	     -8.20506352	    -10.73470956	    -25.20318027	      5.26220157	     -7.94480798	     -8.53278985	      5.73101626	      6.37199999
      4.01000000	      2.20315805	      4.84059312	    165.70010247	      0.12557846	      0.93571766	     -0.60830331	     -0.26457828	      2.85860271	     -7.95857582	    -17.47520134	     18.67862294	      4.58270592	     33.19910401	     -8.24481403	    -10.74896697	    -23.18763509	      5.27155370	     -8.69471112	     -8.50991802	      5.62663736	      6.32462533
      4.02000000	      2.15110068	      4.89476461	    166.35824435	      0.11737773	      0.93430007	     -0.60803222	     -0.92689141	      2.84651250	     -8.44912790	    -17.43257373	     19.03642851	      4.51237400	     33.03180775	     -8.31897703	    -11.05678573	    -21.53018105	      5.29929708	     -9.43418730	     -8.50102203	      5.48477255	      6.29448022
      4.03000000	      2.07046959	      4.93338694	    166.98754505	      0.10901967	      0.93291811	     -0.60768966	     -1.60720385	      2.80980912	     -8.91589704	    -17.42198672	     19.36783369	      4.48863119	     32.90812269	     -8.42336030	    -11.65533378	    -20.26932607	      5.34534919	    -10.16814025	     -8.50481053	      5.31006000	      6.29329982
      4.04000000	      1.95887370	      4.93926596	    167.59622803	      0.10048834	      0.93159671	     -0.60722005	     -2.31203087	      2.72813135	     -9.35325555	    -17.42999477	     19.66294292	      4.50416581	     32.81989348	     -8.52115442	    -12.48682847	    -19.40827156	      5.39452422	    -10.75467747	     -8.52051821	      5.08965128	      6.30002087
      4.05000000	      1.82516647	      4.94123132	    168.17479144	      0.09178490	      0.93033250	     -0.60661886	     -3.02929968	      2.62837559	     -9.76766358	    -17.47431232	     19.90868580	      4.58439564	     32.77156375	     -8.64101697	    -13.47273002	    -18.96537200	      5.46325996	    -11.28094683	     -8.54853848	      4.85976873	      6.34740896
      4.06000000	      1.67264509	      4.93548909	    168.72619149	      0.08288051	      0.92913317	     -0.60588425	     -3.76207221	      2.50705940	    -10.15328813	    -17.54661818	     20.09811641	      4.72025786	     32.74948550	     -8.77056715	    -14.51021164	    -18.91911268	      5.54310083	    -11.69075849	     -8.57868432	      4.61709665	      6.43560702
      4.07000000	      1.50588833	      4.94435414	    169.25255815	      0.07376644	      0.92801711	     -0.60500892	     -4.50914119	      2.38766139	    -10.49621836	    -17.64930602	     20.20694819	      4.92303858	     32.73225681	     -8.92615993	    -15.51896395	    -19.22269895	      5.61016293	    -12.00447156	     -8.61128974	      4.39118246	      6.54556546
      4.08000000	      1.32797244	      4.96092353	    169.75116166	      0.06443555	      0.92698950	     -0.60400423	     -5.26520056	      2.26353260	    -10.77876238	    -17.78466874	     20.23096054	      5.19609937	     32.70438853	     -9.09638393	    -16.43778648	    -19.82917512	      5.64177084	    -12.22705194	     -8.64333088	      4.17153883	      6.68424445
      4.09000000	      1.14900233	      4.98473114	    170.21385695	      0.05486593	      0.92605417	     -0.60286630	     -6.01393830	      2.13014059	    -11.00180347	    -17.96150356	     20.17268666	      5.53943519	     32.63949237	     -9.27344582	    -17.24525026	    -20.65025692	      5.64484275	    -12.37317532	     -8.66168186	      3.96094418	      6.86322272
      4.10000000	      0.99075270	      5.01428675	    170.63691444	      0.04504050	      0.92518974	     -0.60159188	     -6.73037176	      1.98828222	    -11.15090576	    -18.18211979	     20.02110468	      5.89089966	     32.54163545	     -9.45223575	    -17.95264078	    -21.61595241	      5.64099776	    -12.45352391	     -8.63919108	      3.76427366	      7.08721412
      4.11000000	      0.84571802	      5.02681590	    171.03616930	      0.03494583	      0.92444026	     -0.60013815	     -7.42015627	      1.81216147	    -11.23874075	    -18.44283219	     19.79966415	      6.31978013	     32.37731869	     -9.58945234	    -18.58788458	    -22.62661396	      5.56184814	    -12.48626520	     -8.58112974	      3.55630962	      7.32291226
      4.12000000	      0.73736480	      5.02190118	    171.40759126	      0.02460098	      0.92378992	     -0.59849004	     -8.03940619	      1.60076694	    -11.26301866	    -18.77285591	     19.47686696	      6.77018810	     32.16515917	     -9.68190870	    -19.17832766	    -23.61569654	      5.43891702	    -12.48176582	     -8.46198416	      3.34339958	      7.58161723
      4.13000000	      0.67077587	      4.97698538	    171.77707004	      0.01401024	      0.92325531	     -0.59657354	     -8.57500670	      1.32855956	    -11.26833294	    -19.17869133	     19.06936322	      7.31390612	     31.90886614	     -9.68156877	    -19.72714166	    -24.50695376	      5.23511316	    -12.44767412	     -8.27139846	      3.10825196	      7.83942791
      4.14000000	      0.66334029	      4.88875369	    172.14769824	      0.00327028	      0.92284924	     -0.59438198	     -8.96812857	      1.00160151	    -11.19094163	    -19.71903018	     18.52942491	      7.82292040	     31.63924195	     -9.58212720	    -20.24685107	    -25.25444540	      4.92236429	    -12.38907629	     -8.00058241	      2.84976845	      8.05475825
      4.15000000	      0.71506133	      4.75022391	    172.55906327	     -0.00757814	      0.92258888	     -0.59182138	     -9.20076026	      0.60998936	    -11.10079768	    -20.41999967	     17.85629642	      8.39850888	     31.37640336	     -9.33809335	    -20.65934435	    -25.82520505	      4.48665454	    -12.33302811	     -7.65134760	      2.56884068	      8.20112761
      4.16000000	      0.83246973	      4.56647214	    173.02869376	     -0.01846894	      0.92248460	     -0.58886320	     -9.24903783	      0.16854358	    -10.97090496	    -21.30292558	     17.02375922	      9.01290858	     31.14772906	     -8.93295850	    -20.88664808	    -26.21643690	      3.91682222	    -12.29715431	     -7.22381558	      2.27262345	      8.26030897
      4.17000000	      1.01247435	      4.33283465	    173.56321175	     -0.02933424	      0.92252712	     -0.58548683	     -9.07176628	     -0.33707051	    -10.83755998	    -22.43664636	     16.03624130	      9.56467981	     30.96613950	     -8.34839485	    -20.87093299	    -26.44889299	      3.24758497	    -12.29054099	     -6.72985750	      1.95680369	      8.23975599
